<mxfile host="app.diagrams.net" modified="2021-09-27T14:22:53.312Z" agent="5.0 (Macintosh; Intel Mac OS X 10_15_7) AppleWebKit/537.36 (KHTML, like Gecko) Chrome/93.0.4577.82 Safari/537.36" etag="gVJIGD9v7SctSxFoQ6D2" version="15.3.5" type="github">
  <diagram id="C5RBs43oDa-KdzZeNtuy" name="Page-1">
    <mxGraphModel dx="1083" dy="1335" grid="1" gridSize="10" guides="1" tooltips="1" connect="1" arrows="1" fold="1" page="1" pageScale="1" pageWidth="850" pageHeight="1100" math="0" shadow="0">
      <root>
        <mxCell id="WIyWlLk6GJQsqaUBKTNV-0" />
        <mxCell id="WIyWlLk6GJQsqaUBKTNV-1" parent="WIyWlLk6GJQsqaUBKTNV-0" />
        <mxCell id="ZLskoHaiqCr__3fe_2wh-0" value="LDP Database" style="shape=cylinder3;whiteSpace=wrap;html=1;boundedLbl=1;backgroundOutline=1;size=15;hachureGap=4;pointerEvents=0;" parent="WIyWlLk6GJQsqaUBKTNV-1" vertex="1">
          <mxGeometry x="341" y="410" width="80" height="100" as="geometry" />
        </mxCell>
        <mxCell id="ZLskoHaiqCr__3fe_2wh-1" value="FOLIO Database" style="shape=cylinder3;whiteSpace=wrap;html=1;boundedLbl=1;backgroundOutline=1;size=15;hachureGap=4;pointerEvents=0;" parent="WIyWlLk6GJQsqaUBKTNV-1" vertex="1">
          <mxGeometry x="527" y="710" width="80" height="100" as="geometry" />
        </mxCell>
        <mxCell id="ZLskoHaiqCr__3fe_2wh-3" value="FOLIO Analytics (SQL)" style="rounded=1;whiteSpace=wrap;html=1;hachureGap=4;pointerEvents=0;" parent="WIyWlLk6GJQsqaUBKTNV-1" vertex="1">
          <mxGeometry x="321" y="230" width="120" height="60" as="geometry" />
        </mxCell>
        <mxCell id="ZLskoHaiqCr__3fe_2wh-4" value="In App Reports (FOLIO UI)" style="rounded=1;whiteSpace=wrap;html=1;hachureGap=4;pointerEvents=0;" parent="WIyWlLk6GJQsqaUBKTNV-1" vertex="1">
          <mxGeometry x="620" y="230" width="120" height="60" as="geometry" />
        </mxCell>
        <mxCell id="ZLskoHaiqCr__3fe_2wh-6" value="LDP UI &lt;br&gt;(FOLIO UI)" style="rounded=1;whiteSpace=wrap;html=1;hachureGap=4;pointerEvents=0;" parent="WIyWlLk6GJQsqaUBKTNV-1" vertex="1">
          <mxGeometry x="174" y="230" width="120" height="60" as="geometry" />
        </mxCell>
        <mxCell id="ZLskoHaiqCr__3fe_2wh-8" value="LDP App" style="shape=process;whiteSpace=wrap;html=1;backgroundOutline=1;hachureGap=4;pointerEvents=0;" parent="WIyWlLk6GJQsqaUBKTNV-1" vertex="1">
          <mxGeometry x="321" y="590" width="120" height="60" as="geometry" />
        </mxCell>
        <mxCell id="ZLskoHaiqCr__3fe_2wh-9" value="FOLIO" style="shape=process;whiteSpace=wrap;html=1;backgroundOutline=1;hachureGap=4;pointerEvents=0;" parent="WIyWlLk6GJQsqaUBKTNV-1" vertex="1">
          <mxGeometry x="507" y="590" width="120" height="60" as="geometry" />
        </mxCell>
        <mxCell id="ZLskoHaiqCr__3fe_2wh-19" value="" style="endArrow=classic;html=1;startSize=14;endSize=14;sourcePerimeterSpacing=8;targetPerimeterSpacing=8;exitX=0.5;exitY=1;exitDx=0;exitDy=0;entryX=0.145;entryY=0;entryDx=0;entryDy=4.35;entryPerimeter=0;" parent="WIyWlLk6GJQsqaUBKTNV-1" source="ZLskoHaiqCr__3fe_2wh-6" target="ZLskoHaiqCr__3fe_2wh-0" edge="1">
          <mxGeometry width="50" height="50" relative="1" as="geometry">
            <mxPoint x="454" y="740" as="sourcePoint" />
            <mxPoint x="504" y="690" as="targetPoint" />
          </mxGeometry>
        </mxCell>
        <mxCell id="ZLskoHaiqCr__3fe_2wh-21" value="" style="endArrow=classic;html=1;startSize=14;endSize=14;sourcePerimeterSpacing=6;targetPerimeterSpacing=8;exitX=0.5;exitY=1;exitDx=0;exitDy=0;entryX=0.5;entryY=0;entryDx=0;entryDy=0;entryPerimeter=0;" parent="WIyWlLk6GJQsqaUBKTNV-1" source="ZLskoHaiqCr__3fe_2wh-3" target="ZLskoHaiqCr__3fe_2wh-0" edge="1">
          <mxGeometry width="50" height="50" relative="1" as="geometry">
            <mxPoint x="454" y="740" as="sourcePoint" />
            <mxPoint x="410" y="530" as="targetPoint" />
            <Array as="points" />
          </mxGeometry>
        </mxCell>
        <mxCell id="ZLskoHaiqCr__3fe_2wh-23" value="" style="endArrow=classic;html=1;startSize=14;endSize=14;sourcePerimeterSpacing=6;targetPerimeterSpacing=8;exitX=0.5;exitY=1;exitDx=0;exitDy=0;" parent="WIyWlLk6GJQsqaUBKTNV-1" source="ZLskoHaiqCr__3fe_2wh-9" edge="1">
          <mxGeometry width="50" height="50" relative="1" as="geometry">
            <mxPoint x="457" y="1090" as="sourcePoint" />
            <mxPoint x="567" y="710" as="targetPoint" />
          </mxGeometry>
        </mxCell>
        <mxCell id="ZLskoHaiqCr__3fe_2wh-24" value="" style="endArrow=classic;html=1;startSize=14;endSize=14;sourcePerimeterSpacing=6;targetPerimeterSpacing=8;exitX=1;exitY=0.5;exitDx=0;exitDy=0;entryX=0;entryY=0.5;entryDx=0;entryDy=0;" parent="WIyWlLk6GJQsqaUBKTNV-1" source="ZLskoHaiqCr__3fe_2wh-8" target="ZLskoHaiqCr__3fe_2wh-9" edge="1">
          <mxGeometry width="50" height="50" relative="1" as="geometry">
            <mxPoint x="371" y="760" as="sourcePoint" />
            <mxPoint x="491" y="320" as="targetPoint" />
          </mxGeometry>
        </mxCell>
        <mxCell id="ZLskoHaiqCr__3fe_2wh-25" value="&lt;h1&gt;How reporting works in FOLIO&lt;/h1&gt;&lt;p&gt;The LDP is an app that runs separately from FOLIO with its own database, but pulls data from FOLIO. There are three ways to get data out of the LDP database: the LDP UI, FOLIO Analytics (raw SQL) and visual query builders like Tableau. FOLIO in-app reports pull data directly from FOLIO.&lt;/p&gt;" style="text;html=1;strokeColor=none;fillColor=none;spacing=5;spacingTop=-20;whiteSpace=wrap;overflow=hidden;rounded=0;hachureGap=4;pointerEvents=0;" parent="WIyWlLk6GJQsqaUBKTNV-1" vertex="1">
          <mxGeometry x="174" y="90" width="536" height="120" as="geometry" />
        </mxCell>
        <mxCell id="ZLskoHaiqCr__3fe_2wh-26" value="The LDP App is a process that pulls data from FOLIO once a day and puts it it its own special database." style="text;html=1;strokeColor=none;fillColor=none;align=left;verticalAlign=middle;whiteSpace=wrap;rounded=0;hachureGap=4;pointerEvents=0;" parent="WIyWlLk6GJQsqaUBKTNV-1" vertex="1">
          <mxGeometry x="141" y="575" width="130" height="90" as="geometry" />
        </mxCell>
        <mxCell id="0NKoxsxA9t4i3aU0X2-a-0" value="" style="shape=umlActor;verticalLabelPosition=bottom;verticalAlign=top;html=1;outlineConnect=0;hachureGap=4;pointerEvents=0;" vertex="1" parent="WIyWlLk6GJQsqaUBKTNV-1">
          <mxGeometry x="90" y="230" width="30" height="60" as="geometry" />
        </mxCell>
        <mxCell id="0NKoxsxA9t4i3aU0X2-a-7" value="" style="endArrow=none;dashed=1;html=1;dashPattern=1 3;strokeWidth=2;startSize=14;endSize=14;sourcePerimeterSpacing=8;targetPerimeterSpacing=8;" edge="1" parent="WIyWlLk6GJQsqaUBKTNV-1">
          <mxGeometry width="50" height="50" relative="1" as="geometry">
            <mxPoint x="70" y="350" as="sourcePoint" />
            <mxPoint x="740" y="350" as="targetPoint" />
          </mxGeometry>
        </mxCell>
        <mxCell id="0NKoxsxA9t4i3aU0X2-a-11" value="" style="endArrow=classic;html=1;startSize=14;endSize=14;sourcePerimeterSpacing=8;targetPerimeterSpacing=8;exitX=0.5;exitY=0;exitDx=0;exitDy=0;exitPerimeter=0;" edge="1" parent="WIyWlLk6GJQsqaUBKTNV-1" source="ZLskoHaiqCr__3fe_2wh-8">
          <mxGeometry width="50" height="50" relative="1" as="geometry">
            <mxPoint x="167" y="530" as="sourcePoint" />
            <mxPoint x="381" y="510" as="targetPoint" />
          </mxGeometry>
        </mxCell>
        <mxCell id="0NKoxsxA9t4i3aU0X2-a-13" value="" style="endArrow=classic;html=1;startSize=14;endSize=14;sourcePerimeterSpacing=8;targetPerimeterSpacing=8;exitX=0.5;exitY=1;exitDx=0;exitDy=0;entryX=0.5;entryY=0;entryDx=0;entryDy=0;" edge="1" parent="WIyWlLk6GJQsqaUBKTNV-1" source="ZLskoHaiqCr__3fe_2wh-4" target="ZLskoHaiqCr__3fe_2wh-9">
          <mxGeometry width="50" height="50" relative="1" as="geometry">
            <mxPoint x="520" y="420" as="sourcePoint" />
            <mxPoint x="570" y="370" as="targetPoint" />
          </mxGeometry>
        </mxCell>
        <mxCell id="0NKoxsxA9t4i3aU0X2-a-14" value="Query Builders&lt;br&gt;(like Tableau)" style="rounded=1;whiteSpace=wrap;html=1;hachureGap=4;pointerEvents=0;" vertex="1" parent="WIyWlLk6GJQsqaUBKTNV-1">
          <mxGeometry x="470" y="230" width="120" height="60" as="geometry" />
        </mxCell>
        <mxCell id="0NKoxsxA9t4i3aU0X2-a-15" value="" style="endArrow=classic;html=1;startSize=14;endSize=14;sourcePerimeterSpacing=8;targetPerimeterSpacing=8;exitX=0.5;exitY=1;exitDx=0;exitDy=0;entryX=0.855;entryY=0;entryDx=0;entryDy=4.35;entryPerimeter=0;" edge="1" parent="WIyWlLk6GJQsqaUBKTNV-1" source="0NKoxsxA9t4i3aU0X2-a-14" target="ZLskoHaiqCr__3fe_2wh-0">
          <mxGeometry width="50" height="50" relative="1" as="geometry">
            <mxPoint x="80" y="520" as="sourcePoint" />
            <mxPoint x="130" y="470" as="targetPoint" />
          </mxGeometry>
        </mxCell>
        <mxCell id="0NKoxsxA9t4i3aU0X2-a-16" value="In-app repports pull data directly out of FOLIO." style="text;html=1;strokeColor=none;fillColor=none;align=left;verticalAlign=middle;whiteSpace=wrap;rounded=0;hachureGap=4;pointerEvents=0;" vertex="1" parent="WIyWlLk6GJQsqaUBKTNV-1">
          <mxGeometry x="650" y="460" width="120" height="20" as="geometry" />
        </mxCell>
      </root>
    </mxGraphModel>
  </diagram>
</mxfile>
